<svg width="32" height="32" viewBox="0 0 32 32" fill="none" xmlns="http://www.w3.org/2000/svg">
<path d="M22.5333 17.3333C22.2921 18.5132 21.7358 19.6057 20.9236 20.4948C20.1113 21.384 19.0734 22.0364 17.92 22.383C16.7667 22.7295 15.541 22.7572 14.3732 22.463C13.2054 22.1689 12.1391 21.5639 11.2876 20.7123C10.436 19.8608 9.83105 18.7945 9.53689 17.6267C9.24274 16.4589 9.2704 15.2332 9.61695 14.0799C9.96349 12.9265 10.616 11.8886 11.5051 11.0764C12.3942 10.2641 13.4867 9.70784 14.6666 9.46667" stroke="white" stroke-width="2" stroke-linecap="round" stroke-linejoin="round"/>
<path d="M16.44 4H16C13.6266 4 11.3066 4.70379 9.33316 6.02236C7.35977 7.34094 5.8217 9.21509 4.91345 11.4078C4.0052 13.6005 3.76756 16.0133 4.23058 18.3411C4.6936 20.6689 5.83649 22.8071 7.51472 24.4853C9.19295 26.1635 11.3312 27.3064 13.6589 27.7694C15.9867 28.2324 18.3995 27.9948 20.5922 27.0866C22.7849 26.1783 24.6591 24.6402 25.9776 22.6668C27.2962 20.6935 28 18.3734 28 16C28 15.8533 28 15.7067 28 15.56M20 12L16.6667 15.3333L20 12ZM20 8V12H24L28 8H24V4L20 8Z" stroke="white" stroke-width="2" stroke-linecap="round" stroke-linejoin="round"/>
</svg>
