<svg width="44" height="35" viewBox="0 0 44 35" fill="none" xmlns="http://www.w3.org/2000/svg">
<path d="M5.36772 2.43358H6.91377L6.09153 8.73773H4.56285L4.64971 8.0598C4.31387 8.37269 3.99925 8.59094 3.70587 8.71455C3.41635 8.83816 3.09016 8.89997 2.72729 8.89997C1.89347 8.89997 1.2295 8.59287 0.735384 7.97868C0.245128 7.36449 0 6.64987 0 5.83481C0 5.21289 0.156341 4.62188 0.469024 4.06177C0.781707 3.49779 1.20055 3.05936 1.72555 2.74647C2.25441 2.42972 2.80643 2.27135 3.38161 2.27135C3.76764 2.27135 4.12278 2.36019 4.44705 2.53788C4.77517 2.71557 5.04539 2.97438 5.2577 3.31431L5.36772 2.43358ZM3.0863 7.52093C3.4646 7.52093 3.79466 7.43595 4.07646 7.26599C4.35826 7.09602 4.59374 6.82949 4.78289 6.46638C4.9759 6.10327 5.07241 5.73244 5.07241 5.35389C5.07241 4.85558 4.92765 4.45578 4.63813 4.15448C4.35247 3.84931 3.97416 3.69673 3.50321 3.69673C2.95505 3.69673 2.48988 3.89953 2.10771 4.30513C1.72555 4.71072 1.53446 5.23414 1.53446 5.87537C1.53446 6.36981 1.67922 6.76768 1.96874 7.06898C2.25827 7.37028 2.63078 7.52093 3.0863 7.52093Z" fill="white"/>
<path d="M8.64973 0H10.1842L9.76729 3.07095C10.3579 2.53788 10.9717 2.27135 11.6086 2.27135C12.1529 2.27135 12.5988 2.44517 12.9462 2.79283C13.2937 3.13662 13.4674 3.57119 13.4674 4.09653C13.4674 4.34376 13.4346 4.71266 13.3689 5.20324L12.8999 8.73773H11.3654L11.8229 5.29015C11.8692 4.93477 11.8924 4.66823 11.8924 4.49054C11.8924 4.2356 11.819 4.04052 11.6723 3.90532C11.5295 3.76626 11.3249 3.69673 11.0586 3.69673C10.7999 3.69673 10.5413 3.78751 10.2826 3.96906C10.024 4.14675 9.82519 4.3959 9.68622 4.71652C9.54725 5.03327 9.41986 5.63008 9.30405 6.50694L9.00874 8.73773H7.46849L8.64973 0Z" fill="white"/>
<path d="M17.9885 2.27135C18.5483 2.27135 19.0559 2.40075 19.5114 2.65956C19.9708 2.91837 20.3279 3.28534 20.5826 3.76047C20.8374 4.2356 20.9648 4.76867 20.9648 5.35968C20.9648 6.34084 20.6155 7.17714 19.9167 7.86859C19.218 8.55617 18.3533 8.89997 17.3226 8.89997C16.427 8.89997 15.7129 8.62957 15.1802 8.08877C14.6475 7.54411 14.3811 6.83335 14.3811 5.95649C14.3811 4.89807 14.742 4.01928 15.4639 3.3201C16.1858 2.62093 17.0273 2.27135 17.9885 2.27135ZM17.8785 3.73729C17.2454 3.73729 16.759 3.9652 16.4193 4.42101C16.0835 4.87296 15.9156 5.36354 15.9156 5.89275C15.9156 6.36402 16.0526 6.7445 16.3267 7.03422C16.6046 7.32007 16.9733 7.46299 17.4326 7.46299C18.085 7.46299 18.5811 7.24474 18.9208 6.80824C19.2644 6.36788 19.4361 5.86571 19.4361 5.30174C19.4361 4.8382 19.2914 4.46157 19.0019 4.17186C18.7123 3.88215 18.3379 3.73729 17.8785 3.73729Z" fill="white"/>
<path d="M22.058 2.43358H23.4362L23.3261 3.29113C23.7392 2.61127 24.2352 2.27135 24.8143 2.27135C24.9533 2.27135 25.098 2.30804 25.2486 2.38144L24.6927 3.77785C24.5769 3.74308 24.4919 3.7257 24.4379 3.7257C24.1407 3.7257 23.8743 3.90146 23.6388 4.25298C23.4072 4.60063 23.2238 5.3056 23.0887 6.36788L22.7876 8.73773H21.2358L22.058 2.43358Z" fill="white"/>
<path d="M25.5601 2.43358H26.9382L26.8282 3.29113C27.2412 2.61127 27.7373 2.27135 28.3163 2.27135C28.4553 2.27135 28.6001 2.30804 28.7506 2.38144L28.1947 3.77785C28.0789 3.74308 27.994 3.7257 27.94 3.7257C27.6427 3.7257 27.3764 3.90146 27.1409 4.25298C26.9093 4.60063 26.7259 5.3056 26.5908 6.36788L26.2897 8.73773H24.7378L25.5601 2.43358Z" fill="white"/>
<path d="M32.2932 2.27135C32.8529 2.27135 33.3606 2.40075 33.8161 2.65956C34.2754 2.91837 34.6325 3.28534 34.8873 3.76047C35.1421 4.2356 35.2695 4.76867 35.2695 5.35968C35.2695 6.34084 34.9201 7.17714 34.2214 7.86859C33.5227 8.55617 32.658 8.89997 31.6273 8.89997C30.7317 8.89997 30.0176 8.62957 29.4848 8.08877C28.9521 7.54411 28.6858 6.83335 28.6858 5.95649C28.6858 4.89807 29.0467 4.01928 29.7686 3.3201C30.4904 2.62093 31.332 2.27135 32.2932 2.27135ZM32.1832 3.73729C31.5501 3.73729 31.0637 3.9652 30.724 4.42101C30.3881 4.87296 30.2202 5.36354 30.2202 5.89275C30.2202 6.36402 30.3573 6.7445 30.6313 7.03422C30.9093 7.32007 31.2779 7.46299 31.7373 7.46299C32.3897 7.46299 32.8857 7.24474 33.2254 6.80824C33.569 6.36788 33.7408 5.86571 33.7408 5.30174C33.7408 4.8382 33.596 4.46157 33.3065 4.17186C33.017 3.88215 32.6425 3.73729 32.1832 3.73729Z" fill="white"/>
<path d="M0.344182 12.7933C0.206763 12.4495 0.202468 12.1573 0.331299 11.9167C0.468718 11.6674 0.765028 11.5428 1.22023 11.5428H4.40234C4.61706 11.5428 4.79313 11.6116 4.93055 11.7491C5.06797 11.878 5.17103 12.0413 5.23974 12.239L8.88564 22.6167L12.4542 12.239C12.5487 11.964 12.669 11.7792 12.815 11.6846C12.961 11.5901 13.1628 11.5428 13.4205 11.5428H16.7314C16.9719 11.5428 17.1609 11.5772 17.2983 11.646C17.4357 11.7061 17.5302 11.7921 17.5817 11.9038C17.6418 12.0069 17.6633 12.1272 17.6461 12.2648C17.6289 12.3937 17.5946 12.5226 17.543 12.6515C17.2167 13.4594 16.8602 14.3446 16.4738 15.3072C16.0873 16.2611 15.6836 17.2581 15.2628 18.298C14.8505 19.3293 14.4296 20.3821 14.0002 21.4564C13.5708 22.5221 13.1499 23.5707 12.7377 24.602C12.334 25.6333 11.9432 26.626 11.5653 27.5799C11.1874 28.5253 10.8396 29.3933 10.5218 30.184C10.2126 30.9833 9.94205 31.6837 9.71016 32.2854C9.47826 32.887 9.30219 33.3511 9.18195 33.6776L9.2206 33.6132C9.16048 33.8452 9.05312 34.03 8.89853 34.1675C8.74393 34.3136 8.55498 34.3867 8.33167 34.3867H5.35569C4.9692 34.3867 4.70295 34.3093 4.55694 34.1546C4.41952 34.0085 4.35081 33.7894 4.35081 33.4972C4.35081 33.3854 4.36369 33.2995 4.38946 33.2393C4.42381 33.1792 4.44958 33.1405 4.46676 33.1233L6.4894 27.8635L0.344182 12.7933Z" fill="white"/>
<path d="M35.4326 26.974C35.4326 27.1201 35.4068 27.2619 35.3553 27.3995C35.3037 27.5284 35.2178 27.6315 35.0976 27.7089C35.0031 27.8034 34.8915 27.8635 34.7626 27.8893C34.6338 27.9151 34.5222 27.928 34.4277 27.928H31.8897C31.7094 27.928 31.5634 27.9065 31.4517 27.8635C31.3401 27.812 31.2499 27.7432 31.1812 27.6573C31.1125 27.5713 31.0523 27.4682 31.0008 27.3479C30.9579 27.219 30.9106 27.0815 30.8591 26.9354L30.4855 25.9685C30.2536 26.2005 30.0002 26.4498 29.7254 26.7162C29.4505 26.974 29.1456 27.2147 28.8107 27.4381C28.4843 27.6616 28.1279 27.8464 27.7414 27.9925C27.3549 28.1472 26.9426 28.2245 26.5046 28.2245C25.723 28.2245 24.9715 28.1257 24.2501 27.928C23.5372 27.7303 22.8673 27.451 22.2403 27.0901C21.6219 26.7205 21.0594 26.2822 20.5526 25.7751C20.0459 25.2595 19.6079 24.6879 19.2386 24.0605C18.8779 23.4331 18.5987 22.7585 18.4012 22.0366C18.2036 21.306 18.1049 20.5454 18.1049 19.7548C18.1049 18.5601 18.3239 17.4515 18.7619 16.4287C19.1999 15.3974 19.7968 14.5036 20.5526 13.7473C21.3085 12.9824 22.1974 12.3851 23.2194 11.9554C24.2415 11.517 25.3366 11.2979 26.5046 11.2979C27.0371 11.2979 27.5267 11.3795 27.9733 11.5428C28.4199 11.6975 28.8236 11.9038 29.1843 12.1616C29.5536 12.4195 29.8843 12.7117 30.1763 13.0383C30.4769 13.3648 30.7431 13.6957 30.975 14.0309L31.4775 12.471C31.5634 12.2562 31.6321 12.0843 31.6836 11.9554C31.7437 11.8179 31.8038 11.719 31.864 11.6589C31.9327 11.5901 32.0143 11.5471 32.1087 11.5299C32.2032 11.5042 32.3363 11.4913 32.5081 11.4913H34.4277C34.5222 11.4913 34.6338 11.5042 34.7626 11.5299C34.8915 11.5557 35.0031 11.6159 35.0976 11.7104C35.2178 11.805 35.3037 11.9124 35.3553 12.0327C35.4068 12.153 35.4326 12.2905 35.4326 12.4452V26.974ZM22.7428 19.7548C22.7428 20.322 22.8287 20.8548 23.0004 21.3533C23.1808 21.8432 23.4342 22.2686 23.7605 22.6296C24.0869 22.9905 24.4777 23.2785 24.9329 23.4933C25.3967 23.6996 25.9077 23.8027 26.466 23.8027C27.0414 23.8027 27.5739 23.6996 28.0635 23.4933C28.5616 23.2785 28.991 22.9905 29.3518 22.6296C29.7211 22.2686 30.0088 21.8432 30.2149 21.3533C30.4211 20.8548 30.5241 20.322 30.5241 19.7548C30.5241 19.2047 30.4211 18.6805 30.2149 18.182C30.0088 17.6835 29.7211 17.2452 29.3518 16.867C28.991 16.4889 28.5616 16.1924 28.0635 15.9775C27.5739 15.7541 27.0414 15.6423 26.466 15.6423C25.9077 15.6423 25.3967 15.7541 24.9329 15.9775C24.4777 16.1924 24.0869 16.4889 23.7605 16.867C23.4342 17.2452 23.1808 17.6835 23.0004 18.182C22.8287 18.6805 22.7428 19.2047 22.7428 19.7548Z" fill="white"/>
<path d="M38.948 7.27572C38.948 6.89757 39.1585 6.7085 39.5793 6.7085H42.9289C43.3068 6.7085 43.4957 6.89757 43.4957 7.27572V21.1728C43.4957 21.3361 43.4485 21.4736 43.354 21.5854C43.2596 21.6885 43.1178 21.7401 42.9289 21.7401H39.5793C39.4505 21.7401 39.313 21.6885 39.167 21.5854C39.021 21.4822 38.948 21.3447 38.948 21.1728V7.27572ZM38.948 24.2281C38.948 24.0562 38.9953 23.9187 39.0897 23.8156C39.1928 23.7125 39.3345 23.6609 39.5149 23.6609H42.916C43.062 23.6609 43.1951 23.7125 43.3154 23.8156C43.4442 23.9187 43.5086 24.0562 43.5086 24.2281V27.3479C43.5086 27.5026 43.4571 27.6401 43.354 27.7604C43.251 27.8807 43.105 27.9409 42.916 27.9409H39.5149C39.137 27.9409 38.948 27.7432 38.948 27.3479V24.2281Z" fill="white"/>
</svg>
