<svg width="116" height="23" viewBox="0 0 116 23" fill="none" xmlns="http://www.w3.org/2000/svg">
<path d="M103.001 6.57387L102.597 5.27938H100.598L100.213 6.57387H98.376L100.465 0.322754H102.749L104.838 6.57387H103.001ZM100.993 3.93897H102.177L101.568 1.97844L100.993 3.93897ZM105.398 6.57596V0.324844H109.915V1.95339H107.154V2.84492H109.403V4.47346H107.154V6.57804H105.398V6.57596ZM110.672 6.57596V0.322754H113.514C114.201 0.322754 114.771 0.519016 115.222 0.911538C115.674 1.30406 115.898 1.83438 115.898 2.50041C115.898 3.16645 115.674 3.69468 115.222 4.0872C114.771 4.47972 114.201 4.67599 113.514 4.67599H112.43V6.57387H110.672V6.57596ZM112.43 3.16645H113.254C113.793 3.16645 114.061 2.94513 114.061 2.50041C114.061 2.05569 113.782 1.83438 113.227 1.83438H112.43V3.16645ZM76.364 22.2058H70.1702V8.61373L66.3462 22.2058H61.563L57.4353 8.64505V22.2058H51.2415V0.324844H59.3577L63.9224 14.4139L68.4538 0.324844H76.3619V22.2058H76.364ZM39.3221 16.6604V22.0931C38.7791 22.2601 38.2298 22.3228 37.562 22.3228C35.4315 22.3228 33.7588 21.8655 32.3274 20.9865C30.898 20.1075 29.787 18.5166 28.8113 16.0758L28.4201 15.0715H26.3333V22.2037H20.4641V0.324844H30.8294C33.2511 0.324844 35.2505 1.00132 36.8276 2.35217C38.4046 3.70303 39.191 5.54246 39.191 7.86836C39.191 9.46141 38.7937 10.7747 38.001 11.8124C37.2083 12.85 35.8476 13.5015 34.4058 13.942C34.9155 14.8648 35.702 15.6478 36.3282 16.1238C37.3352 16.888 38.9372 16.7064 39.3221 16.6604ZM26.3333 5.3629V10.0398H29.9202C31.9321 10.0398 32.939 9.25471 32.939 7.68462C32.939 6.1375 31.8988 5.3629 29.8203 5.3629H26.3333ZM0 22.2058V0.324844H9.92624C12.3272 0.324844 14.3141 1.01175 15.8911 2.38349C17.4661 3.75523 18.2546 5.60509 18.2546 7.9289C18.2546 10.2548 17.4661 12.1026 15.8911 13.4743C14.3141 14.8461 12.3272 15.533 9.92624 15.533H5.93369V22.2058H0ZM5.90456 10.4302H9.01288C11.0393 10.4302 12.0546 9.59504 12.0546 7.92056C12.0546 6.24816 11.0081 5.41092 8.91301 5.41092H5.90664V10.4302H5.90456ZM42.1808 22.2058V0.324844H48.077V22.2079H42.1808V22.2058ZM100.49 22.2058L93.1726 0.322754H85.3186L78.0076 22.2058H84.1493L85.2499 18.4685C86.4629 18.8757 87.7861 19.0803 89.2175 19.0803C90.6469 19.0803 91.968 18.8757 93.1789 18.4706L94.3398 22.2058H100.49ZM89.2175 13.4451C88.3416 13.4451 87.5635 13.2676 86.8852 12.9127L89.1052 5.36498L91.4645 12.9544C90.8071 13.2801 90.0581 13.4451 89.2175 13.4451Z" fill="#FF4F00"/>
</svg>
