<svg width="91" height="18" viewBox="0 0 91 18" fill="none" xmlns="http://www.w3.org/2000/svg">
<path d="M80.497 5.6312L80.1816 4.61954H78.619L78.3182 5.6312H76.8825L78.515 0.74585H80.3003L81.9328 5.6312H80.497ZM78.928 3.57198H79.8531L79.3767 2.0398L78.928 3.57198ZM82.3702 5.63283V0.747483H85.9001V2.02022H83.7425V2.71696H85.5002V3.9897H83.7425V5.63446H82.3702V5.63283ZM86.492 5.63283V0.74585H88.7131C89.2497 0.74585 89.6952 0.899232 90.048 1.20599C90.4008 1.51276 90.5764 1.92721 90.5764 2.44773C90.5764 2.96824 90.4008 3.38107 90.048 3.68783C89.6952 3.99459 89.2497 4.14797 88.7131 4.14797H87.866V5.6312H86.492V5.63283ZM87.866 2.96824H88.5098C88.931 2.96824 89.1407 2.79528 89.1407 2.44773C89.1407 2.10017 88.9228 1.92721 88.4887 1.92721H87.866V2.96824ZM59.6797 17.8478H54.8392V7.22538L51.8507 17.8478H48.1125L44.8866 7.24986V17.8478H40.0461V0.747483H46.389L49.9564 11.7583L53.4978 0.747483H59.6781V17.8478H59.6797ZM30.7309 13.514V17.7597C30.3065 17.8903 29.8773 17.9392 29.3553 17.9392C27.6903 17.9392 26.383 17.5819 25.2644 16.8949C24.1473 16.208 23.2791 14.9646 22.5165 13.0571L22.2108 12.2723H20.5799V17.8462H15.9931V0.747483H24.0937C25.9863 0.747483 27.5489 1.27616 28.7813 2.33188C30.0138 3.38759 30.6285 4.82514 30.6285 6.64286C30.6285 7.88786 30.3179 8.91421 29.6984 9.72517C29.0789 10.5361 28.0155 11.0452 26.8887 11.3895C27.2871 12.1107 27.9017 12.7226 28.3911 13.0947C29.1781 13.6919 30.4301 13.5499 30.7309 13.514ZM20.5799 4.68481V8.33985H23.3831C24.9554 8.33985 25.7424 7.72632 25.7424 6.49927C25.7424 5.29017 24.9294 4.68481 23.3051 4.68481H20.5799ZM0 17.8478V0.747483H7.75752C9.63389 0.747483 11.1867 1.28431 12.4192 2.35635C13.65 3.42839 14.2663 4.87408 14.2663 6.69018C14.2663 8.50791 13.65 9.95197 12.4192 11.024C11.1867 12.096 9.63389 12.6329 7.75752 12.6329H4.63728V17.8478H0ZM4.61451 8.64497H7.04372C8.62741 8.64497 9.42089 7.99229 9.42089 6.68366C9.42089 5.37665 8.60302 4.72233 6.96567 4.72233H4.61614V8.64497H4.61451ZM32.965 17.8478V0.747483H37.573V17.8495H32.965V17.8478ZM78.5345 17.8478L72.8159 0.74585H66.6779L60.9642 17.8478H65.7641L66.6242 14.9271C67.5722 15.2453 68.6063 15.4052 69.725 15.4052C70.842 15.4052 71.8745 15.2453 72.8208 14.9287L73.7281 17.8478H78.5345ZM69.725 11.0012C69.0404 11.0012 68.4323 10.8625 67.9023 10.5851L69.6372 4.68644L71.481 10.6177C70.9672 10.8723 70.3819 11.0012 69.725 11.0012Z" fill="white"/>
</svg>
